<?xml version="1.0" encoding="UTF-8" standalone="no"?>
<svg
   xmlns:dc="http://purl.org/dc/elements/1.1/"
   xmlns:cc="http://creativecommons.org/ns#"
   xmlns:rdf="http://www.w3.org/1999/02/22-rdf-syntax-ns#"
   xmlns:svg="http://www.w3.org/2000/svg"
   xmlns="http://www.w3.org/2000/svg"
   xmlns:sodipodi="http://sodipodi.sourceforge.net/DTD/sodipodi-0.dtd"
   xmlns:inkscape="http://www.inkscape.org/namespaces/inkscape"
   id="Layer_1"
   data-name="Layer 1"
   viewBox="0 0 200.00001 230.47"
   version="1.1"
   sodipodi:docname="logo.svg"
   width="200"
   height="230.47"
   inkscape:version="0.92.3 (2405546, 2018-03-11)">
  <path
     class="cls-1"
     d="m 115.24,205.05 a 89.82,89.82 0 1 1 63.5,-153.320003 l 18,-18 A 115.21,115.21 0 1 0 168.59,217.4 l 6.82,-3.57 V 123 v 0 -12.29 h -66.65 v 24.74 h 39.33 c -1.66,7.39 -10.71,21.42 -32.31,21.42 -21.23,0 -39.32,-14.22 -39.32,-41.54 0,-29.170003 20.86,-41.000003 38.58,-41.000003 14.42,0 23.07,6.48 27.88,13.21 l 20.9,-20.9 c -9.77,-10.95 -25.34,-19.64 -48.82,-19.64 -36.92,0 -68.12,27.14 -68.12,68.310003 0,41.35 29.91,68.12 66.27,68.12 18.65,0 31,-7.75 36.74,-16.06 l 0.06,0.38 v 30.32 a 88.89,88.89 0 0 1 -34.71,6.98 z"
     id="path8"
     inkscape:connector-curvature="0"
     style="fill:white" />
</svg>
