<?xml version="1.0" standalone="no"?>
<!DOCTYPE svg PUBLIC "-//W3C//DTD SVG 1.0//EN" "http://www.w3.org/TR/2001/REC-SVG-20010904/DTD/svg10.dtd">
<svg xmlns="http://www.w3.org/2000/svg" xmlns:xlink="http://www.w3.org/1999/xlink" id="body_1" width="110" height="110">

<defs>
    <linearGradient transform="matrix(1 0 0 1 0 0)"  id="1" x1="55.54918" y1="77.070274" x2="110.14919" y2="131.8529">
        <stop stop-color="#387EB8" offset="0%"/>
        <stop stop-color="#366994" offset="100%"/>
    </linearGradient>
    <linearGradient transform="matrix(1 0 0 1 0 0)"  id="242" x1="89.13675" y1="111.92053" x2="147.77737" y2="168.1012">
        <stop stop-color="#FFE052" offset="0%"/>
        <stop stop-color="#FFC331" offset="100%"/>
    </linearGradient>
</defs>

<g transform="matrix(0.99618644 0 0 1.0014011 0 0)">
	<g transform="matrix(1 0 0 1 -473.36087 -251.72485)">
		<g transform="matrix(1 0 0 1 428.42337 184.2561)">
            <path d="M99.75 67.46875C 71.71827 67.46875 73.46875 79.625 73.46875 79.625L73.46875 79.625L73.5 92.21875L100.25 92.21875L100.25 96L62.875 96C 62.875 96 44.9375 93.96572 44.9375 122.25C 44.937496 150.53427 60.59375 149.53125 60.59375 149.53125L60.59375 149.53125L69.9375 149.53125L69.9375 136.40625C 69.9375 136.40625 69.433846 120.75 85.34375 120.75C 101.25365 120.75 111.875 120.75 111.875 120.75C 111.875 120.75 126.78125 120.99096 126.78125 106.34375C 126.78125 91.69654 126.78125 82.125 126.78125 82.125C 126.78125 82.125 129.04443 67.46875 99.75 67.46875zM85 75.9375C 87.66143 75.9375 89.8125 78.08857 89.8125 80.75C 89.8125 83.41143 87.66143 85.5625 85 85.5625C 82.33857 85.5625 80.1875 83.41143 80.1875 80.75C 80.1875 78.08857 82.33857 75.9375 85 75.9375z" stroke="none" fill="url(#1)" />
            <path d="M100.5461 177.31485C 128.57784 177.31485 126.82735 165.1586 126.82735 165.1586L126.82735 165.1586L126.7961 152.56485L100.0461 152.56485L100.0461 148.7836L137.4211 148.7836C 137.4211 148.7836 155.3586 150.81787 155.3586 122.53359C 155.35861 94.24932 139.70235 95.25234 139.70235 95.25234L139.70235 95.25234L130.3586 95.25234L130.3586 108.37734C 130.3586 108.37734 130.86226 124.03359 114.95235 124.03359C 99.04245 124.03359 88.4211 124.03359 88.4211 124.03359C 88.4211 124.03359 73.51485 123.79263 73.51485 138.43985C 73.51485 153.08705 73.51485 162.6586 73.51485 162.6586C 73.51485 162.6586 71.25167 177.31485 100.5461 177.31485zM115.2961 168.8461C 112.63467 168.8461 110.4836 166.69502 110.4836 164.0336C 110.4836 161.37218 112.63467 159.2211 115.2961 159.2211C 117.95753 159.2211 120.1086 161.37218 120.1086 164.0336C 120.10861 166.69502 117.95753 168.8461 115.2961 168.8461z" stroke="none" fill="url(#242)" />
		</g>
	</g>
</g>
</svg>